STARTFONT 2.1
FONT -bars-pixel-bold-r-normal--14-100-75-75-c-60-iso10646-1
SIZE 14 75 75
FONTBOUNDINGBOX 5 7 0 0
STARTPROPERTIES 11
FONT_ASCENT 7
FONT_DESCENT 0
DEFAULT_CHAR 913
FAMILY_NAME "Bars Pixel"
WEIGHT_NAME "Bold"
SLANT "R"
SETWIDTH_NAME "Normal"
ADD_STYLE_NAME ""
SPACING "C"
CHARSET_REGISTRY "ISO10646"
CHARSET_ENCODING "1"
ENDPROPERTIES
CHARS 24
STARTCHAR ALPHA
ENCODING 913
SWIDTH 600 0
DWIDTH 6 0
BBX 5 7 0 0
BITMAP
70
88
88
F8
88
88
88
ENDCHAR
STARTCHAR BETA
ENCODING 914
SWIDTH 600 0
DWIDTH 6 0
BBX 5 7 0 0
BITMAP
F0
88
88
F0
88
88
F0
ENDCHAR
STARTCHAR GAMMA
ENCODING 915
SWIDTH 600 0
DWIDTH 6 0
BBX 5 7 0 0
BITMAP
F8
80
80
80
80
80
80
ENDCHAR
STARTCHAR DELTA
ENCODING 916
SWIDTH 600 0
DWIDTH 6 0
BBX 5 7 0 0
BITMAP
20
50
50
88
88
88
F8
ENDCHAR
STARTCHAR EPSILON
ENCODING 917
SWIDTH 600 0
DWIDTH 6 0
BBX 5 7 0 0
BITMAP
F8
80
80
F0
80
80
F8
ENDCHAR
STARTCHAR ZETA
ENCODING 918
SWIDTH 600 0
DWIDTH 6 0
BBX 5 7 0 0
BITMAP
F8
08
10
20
40
80
F8
ENDCHAR
STARTCHAR ETA
ENCODING 919
SWIDTH 600 0
DWIDTH 6 0
BBX 5 7 0 0
BITMAP
88
88
88
F8
88
88
88
ENDCHAR
STARTCHAR THETA
ENCODING 920
SWIDTH 600 0
DWIDTH 6 0
BBX 5 7 0 0
BITMAP
70
88
88
F8
88
88
70
ENDCHAR
STARTCHAR IOTA
ENCODING 921
SWIDTH 600 0
DWIDTH 6 0
BBX 5 7 0 0
BITMAP
F8
20
20
20
20
20
F8
ENDCHAR
STARTCHAR KAPPA
ENCODING 922
SWIDTH 600 0
DWIDTH 6 0
BBX 5 7 0 0
BITMAP
88
90
A0
C0
A0
90
88
ENDCHAR
STARTCHAR LAMBDA
ENCODING 923
SWIDTH 600 0
DWIDTH 6 0
BBX 5 7 0 0
BITMAP
20
50
50
88
88
88
88
ENDCHAR
STARTCHAR MU
ENCODING 924
SWIDTH 600 0
DWIDTH 6 0
BBX 5 7 0 0
BITMAP
88
D8
A8
A8
88
88
88
ENDCHAR
STARTCHAR NU
ENCODING 925
SWIDTH 600 0
DWIDTH 6 0
BBX 5 7 0 0
BITMAP
88
C8
A8
A8
98
88
88
ENDCHAR
STARTCHAR XI
ENCODING 926
SWIDTH 600 0
DWIDTH 6 0
BBX 5 7 0 0
BITMAP
F8
00
70
00
70
00
F8
ENDCHAR
STARTCHAR OMICRON
ENCODING 927
SWIDTH 600 0
DWIDTH 6 0
BBX 5 7 0 0
BITMAP
70
88
88
88
88
88
70
ENDCHAR
STARTCHAR PI
ENCODING 928
SWIDTH 600 0
DWIDTH 6 0
BBX 5 7 0 0
BITMAP
F8
88
88
88
88
88
88
ENDCHAR
STARTCHAR RHO
ENCODING 929
SWIDTH 600 0
DWIDTH 6 0
BBX 5 7 0 0
BITMAP
F0
88
88
F0
80
80
80
ENDCHAR
STARTCHAR SIGMA
ENCODING 931
SWIDTH 600 0
DWIDTH 6 0
BBX 5 7 0 0
BITMAP
F8
80
40
20
40
80
F8
ENDCHAR
STARTCHAR TAU
ENCODING 932
SWIDTH 600 0
DWIDTH 6 0
BBX 5 7 0 0
BITMAP
F8
20
20
20
20
20
20
ENDCHAR
STARTCHAR UPSILON
ENCODING 933
SWIDTH 600 0
DWIDTH 6 0
BBX 5 7 0 0
BITMAP
88
88
50
20
20
20
20
ENDCHAR
STARTCHAR PHI
ENCODING 934
SWIDTH 600 0
DWIDTH 6 0
BBX 5 7 0 0
BITMAP
20
70
A8
A8
70
20
20
ENDCHAR
STARTCHAR CHI
ENCODING 935
SWIDTH 600 0
DWIDTH 6 0
BBX 5 7 0 0
BITMAP
88
88
50
20
50
88
88
ENDCHAR
STARTCHAR PSI
ENCODING 936
SWIDTH 600 0
DWIDTH 6 0
BBX 5 7 0 0
BITMAP
A8
A8
A8
70
20
20
20
ENDCHAR
STARTCHAR OMEGA
ENCODING 937
SWIDTH 600 0
DWIDTH 6 0
BBX 5 7 0 0
BITMAP
70
88
88
88
88
A8
D8
ENDCHAR
ENDFONT
